<?xml version="1.0" encoding="UTF-8"?><svg xmlns="http://www.w3.org/2000/svg" xmlns:xlink="http://www.w3.org/1999/xlink" width="375pt" zoomAndPan="magnify" viewBox="0 0 375 374.999991" height="374.999991pt" preserveAspectRatio="xMidYMid meet" version="1.2"><defs><clipPath xml:id="clip1" id="clip1"><path d="M 139 151.925781 L 263.75 151.925781 L 263.75 370.6875 L 139 370.6875 Z M 139 151.925781 "/></clipPath><clipPath xml:id="clip2" id="clip2"><path d="M 139 291.207031 L 263.75 291.207031 L 263.75 370.6875 L 139 370.6875 Z M 139 291.207031 "/></clipPath><clipPath xml:id="clip3" id="clip3"><path d="M 15 151.925781 L 139.316406 151.925781 L 139.316406 370.6875 L 15 370.6875 Z M 15 151.925781 "/></clipPath><clipPath xml:id="clip4" id="clip4"><path d="M 15 291.207031 L 139.316406 291.207031 L 139.316406 370.6875 L 15 370.6875 Z M 15 291.207031 "/></clipPath><clipPath xml:id="clip5" id="clip5"><path d="M 187 4.6875 L 331 4.6875 L 331 55 L 187 55 Z M 187 4.6875 "/></clipPath><clipPath xml:id="clip6" id="clip6"><path d="M 269.042969 135 L 374.707031 135 L 374.707031 235 L 269.042969 235 Z M 269.042969 135 "/></clipPath></defs><g xml:id="surface1" id="surface1"><path style=" stroke:none;fill-rule:nonzero;fill:rgb(3.138733%,51.759338%,76.858521%);fill-opacity:1;" d="M 328.757812 7.6875 L 328.734375 7.671875 L 328.734375 7.675781 C 328.734375 7.683594 328.75 7.683594 328.757812 7.6875 "/><g clip-rule="nonzero" clip-path="url(#clip1)"><path style=" stroke:none;fill-rule:evenodd;fill:rgb(70.199585%,78.039551%,78.42865%);fill-opacity:1;" d="M 263.238281 174.667969 L 263.238281 303.925781 L 139.253906 371.050781 L 139.253906 244.03125 L 210.902344 151.9375 L 263.238281 174.667969 "/></g><g clip-rule="nonzero" clip-path="url(#clip2)"><path style=" stroke:none;fill-rule:evenodd;fill:rgb(49.01886%,60.778809%,59.609985%);fill-opacity:1;" d="M 263.238281 303.871094 L 263.238281 291.28125 L 222.949219 313.125 L 139.253906 358.464844 L 139.253906 371.050781 L 221.367188 326.558594 L 263.238281 303.871094 "/></g><g clip-rule="nonzero" clip-path="url(#clip3)"><path style=" stroke:none;fill-rule:evenodd;fill:rgb(90.589905%,92.549133%,92.549133%);fill-opacity:1;" d="M 15.269531 174.667969 L 15.269531 303.925781 L 139.253906 371.050781 L 139.253906 244.03125 L 67.605469 151.9375 L 15.269531 174.667969 "/></g><g clip-rule="nonzero" clip-path="url(#clip4)"><path style=" stroke:none;fill-rule:evenodd;fill:rgb(54.899597%,67.059326%,67.449951%);fill-opacity:1;" d="M 15.269531 303.871094 L 15.269531 291.28125 L 55.554688 313.125 L 139.253906 358.464844 L 139.253906 371.050781 L 57.136719 326.558594 L 15.269531 303.871094 "/></g><path style=" stroke:none;fill-rule:evenodd;fill:rgb(72.938538%,32.159424%,17.649841%);fill-opacity:1;" d="M 284.851562 173.730469 L 283.195312 179.886719 L 146.253906 254.140625 L 61.164062 157.941406 L 61.164062 146.339844 L 284.851562 173.730469 "/><path style=" stroke:none;fill-rule:evenodd;fill:rgb(72.938538%,32.159424%,17.649841%);fill-opacity:1;" d="M 4.265625 178.695312 L 61.164062 157.941406 L 61.164062 150.84375 L 0.320312 173.292969 L 4.265625 178.695312 "/><path style=" stroke:none;fill-rule:evenodd;fill:rgb(88.238525%,42.349243%,16.079712%);fill-opacity:1;" d="M 198.769531 76.230469 L 284.851562 173.730469 L 147.257812 248.335938 L 61.164062 150.84375 L 198.769531 76.230469 "/><path style=" stroke:none;fill-rule:evenodd;fill:rgb(91.758728%,50.19989%,20.779419%);fill-opacity:1;" d="M 127.578125 104.304688 L 0.320312 173.292969 L 61.164062 150.84375 L 198.769531 76.230469 L 127.578125 104.304688 "/><path style=" stroke:none;fill-rule:evenodd;fill:rgb(78.819275%,34.509277%,14.509583%);fill-opacity:1;" d="M 162.289062 201.871094 L 185.3125 227.9375 L 166.488281 238.214844 L 143.460938 212.152344 L 162.289062 201.871094 "/><path style=" stroke:none;fill-rule:evenodd;fill:rgb(72.938538%,32.159424%,17.649841%);fill-opacity:1;" d="M 283.0625 180.285156 L 146.109375 254.527344 L 147.109375 248.71875 L 284.707031 174.125 L 283.0625 180.285156 "/><path style=" stroke:none;fill-rule:evenodd;fill:rgb(64.309692%,45.098877%,26.269531%);fill-opacity:1;" d="M 82.378906 246.398438 L 82.378906 339.707031 L 110.253906 354.828125 L 110.253906 261.507812 L 82.378906 246.398438 "/><path style=" stroke:none;fill-rule:evenodd;fill:rgb(75.289917%,58.81958%,33.329773%);fill-opacity:1;" d="M 108.109375 308.761719 L 108.109375 265.746094 L 86.710938 254.140625 L 86.710938 297.15625 L 108.109375 308.761719 "/><path style=" stroke:none;fill-rule:evenodd;fill:rgb(75.289917%,58.81958%,33.329773%);fill-opacity:1;" d="M 86.710938 302.140625 L 86.710938 333.898438 L 108.109375 345.511719 L 108.109375 313.742188 L 86.710938 302.140625 "/><path style=" stroke:none;fill-rule:evenodd;fill:rgb(67.059326%,79.219055%,79.998779%);fill-opacity:1;" d="M 34.546875 220.46875 L 34.546875 282.742188 L 53.570312 293.117188 L 53.570312 230.777344 L 34.546875 220.46875 "/><path style=" stroke:none;fill-rule:evenodd;fill:rgb(51.368713%,65.879822%,68.238831%);fill-opacity:1;" d="M 215.09375 230.324219 L 215.09375 292.648438 L 234.125 282.28125 L 234.125 220.007812 L 215.09375 230.324219 "/><path style=" stroke:none;fill-rule:evenodd;fill:rgb(51.368713%,65.879822%,68.238831%);fill-opacity:1;" d="M 171.152344 253.871094 L 171.152344 316.195312 L 190.183594 305.824219 L 190.183594 243.558594 L 171.152344 253.871094 "/><path style=" stroke:none;fill-rule:evenodd;fill:rgb(90.979004%,90.979004%,90.589905%);fill-opacity:1;" d="M 143.460938 188.59375 L 162.289062 178.316406 L 143.621094 166.167969 L 124.632812 176.03125 L 143.460938 188.59375 "/><path style=" stroke:none;fill-rule:evenodd;fill:rgb(37.249756%,37.649536%,38.42926%);fill-opacity:1;" d="M 143.921875 184.167969 L 155.726562 177.722656 L 144.019531 170.105469 L 132.113281 176.296875 L 143.921875 184.167969 "/><path style=" stroke:none;fill-rule:evenodd;fill:rgb(58.039856%,58.428955%,58.428955%);fill-opacity:1;" d="M 162.289062 178.316406 L 162.289062 201.871094 L 143.460938 212.152344 L 143.460938 188.59375 L 162.289062 178.316406 "/><path style=" stroke:none;fill-rule:evenodd;fill:rgb(80.389404%,79.998779%,79.219055%);fill-opacity:1;" d="M 124.632812 176.03125 L 124.632812 190.835938 L 143.460938 212.152344 L 143.460938 188.59375 L 124.632812 176.03125 "/><path style=" stroke:none;fill-rule:nonzero;fill:rgb(56.858826%,56.079102%,56.079102%);fill-opacity:1;" d="M 220.214844 175.539062 C 220.53125 175.382812 255.476562 154.269531 273.289062 143.492188 C 291.082031 132.695312 308.054688 122.375 308.339844 122.175781 C 320.515625 130.496094 335.644531 129.304688 349.035156 121.117188 C 358.792969 115.148438 365.394531 105.214844 367.132812 93.851562 C 367.320312 92.5625 366.753906 91.273438 365.675781 90.5625 C 364.59375 89.835938 363.195312 89.8125 362.082031 90.496094 L 337.582031 105.472656 L 318.871094 94.109375 L 317.371094 72.253906 L 341.867188 57.28125 C 342.980469 56.605469 343.589844 55.351562 343.449219 54.050781 C 343.300781 52.757812 342.421875 51.667969 341.183594 51.25 C 330.320312 47.613281 318.480469 48.9375 308.714844 54.914062 C 295.347656 63.078125 286.71875 76.785156 288.523438 91.4375 C 288.222656 91.597656 271.769531 101.5625 254.347656 112.085938 C 236.9375 122.640625 202.554688 143.480469 202.277344 143.683594 C 190.167969 135.273438 174.042969 136.539062 160.609375 144.605469 C 150.785156 150.492188 144.101562 160.378906 142.28125 171.710938 C 142.082031 173.011719 142.632812 174.292969 143.710938 175.023438 C 144.78125 175.746094 146.183594 175.792969 147.292969 175.113281 L 171.90625 160.359375 L 190.519531 171.851562 L 191.847656 193.722656 L 167.226562 208.496094 C 166.117188 209.164062 165.492188 210.417969 165.636719 211.710938 C 165.769531 212.988281 166.632812 214.105469 167.851562 214.542969 C 178.695312 218.265625 190.542969 217.039062 200.359375 211.152344 C 213.8125 203.078125 221.894531 190.21875 220.214844 175.539062 "/><path style=" stroke:none;fill-rule:nonzero;fill:rgb(65.489197%,64.709473%,65.098572%);fill-opacity:1;" d="M 217.296875 174.566406 C 217.585938 174.414062 255.652344 151.410156 272.074219 141.476562 C 288.480469 131.523438 308.566406 119.320312 308.820312 119.121094 C 315.257812 126.644531 335.859375 126.226562 348.378906 118.558594 C 357.5 112.988281 363.671875 103.691406 365.292969 93.074219 C 365.472656 91.871094 364.941406 90.671875 363.929688 89.996094 C 363.289062 89.988281 362.648438 90.148438 362.082031 90.496094 L 337.582031 105.472656 L 318.871094 94.109375 L 317.371094 72.253906 L 341.867188 57.28125 C 342.4375 56.9375 342.875 56.425781 343.144531 55.839844 C 343 54.644531 342.175781 53.648438 341.042969 53.25 C 330.875 49.839844 319.816406 51.082031 310.695312 56.675781 C 298.183594 64.3125 287.839844 82.277344 291.484375 92.355469 C 291.195312 92.503906 271.597656 104.355469 255.539062 114.070312 C 239.496094 123.796875 201.960938 146.539062 201.707031 146.726562 C 194.5 138.816406 173.808594 139.632812 161.246094 147.171875 C 152.066406 152.664062 145.824219 161.90625 144.117188 172.507812 C 143.925781 173.699219 144.4375 174.90625 145.425781 175.585938 C 146.066406 175.617188 146.71875 175.46875 147.292969 175.113281 L 171.90625 160.359375 L 190.519531 171.851562 L 191.847656 193.722656 L 167.226562 208.496094 C 166.660156 208.84375 166.21875 209.328125 165.941406 209.898438 C 166.058594 211.113281 166.882812 212.136719 168.027344 212.542969 C 178.164062 216.035156 189.234375 214.894531 198.410156 209.375 C 210.996094 201.835938 220.960938 183.769531 217.296875 174.566406 "/><path style=" stroke:none;fill-rule:nonzero;fill:rgb(56.858826%,56.079102%,56.079102%);fill-opacity:1;" d="M 303.078125 108.050781 L 299.1875 101.589844 C 297.558594 98.902344 293.910156 98.152344 291.019531 99.894531 L 258.769531 119.433594 L 208.585938 149.828125 C 205.699219 151.574219 204.664062 155.164062 206.289062 157.851562 L 210.1875 164.3125 C 211.800781 166.996094 215.441406 167.753906 218.34375 166 L 268.527344 135.605469 L 300.773438 116.074219 C 303.660156 114.328125 304.691406 110.730469 303.078125 108.050781 "/><path style=" stroke:none;fill-rule:nonzero;fill:rgb(82.749939%,82.348633%,82.348633%);fill-opacity:1;" d="M 311.847656 70.046875 L 313.710938 97.246094 L 337 111.371094 L 367.136719 92.945312 C 367.027344 91.996094 366.496094 91.109375 365.675781 90.5625 C 364.59375 89.835938 363.195312 89.8125 362.082031 90.496094 L 337.582031 105.472656 L 318.871094 94.109375 L 317.371094 72.253906 L 341.867188 57.28125 C 342.980469 56.605469 343.589844 55.351562 343.449219 54.050781 C 343.335938 53.050781 342.777344 52.175781 341.953125 51.632812 L 311.847656 70.046875 "/><path style=" stroke:none;fill-rule:nonzero;fill:rgb(82.749939%,82.348633%,82.348633%);fill-opacity:1;" d="M 172.527344 154.410156 L 195.6875 168.726562 L 197.34375 195.945312 L 167.066406 214.128906 C 166.261719 213.578125 165.726562 212.695312 165.636719 211.710938 C 165.492188 210.417969 166.117188 209.164062 167.226562 208.496094 L 191.847656 193.722656 L 190.519531 171.851562 L 171.90625 160.359375 L 147.292969 175.113281 C 146.183594 175.792969 144.78125 175.746094 143.710938 175.023438 C 142.882812 174.445312 142.359375 173.554688 142.257812 172.574219 L 172.527344 154.410156 "/><g clip-rule="nonzero" clip-path="url(#clip5)"><path style=" stroke:none;fill-rule:nonzero;fill:rgb(74.119568%,73.728943%,73.728943%);fill-opacity:1;" d="M 241.664062 54.523438 C 239.984375 54.523438 238.628906 53.175781 238.613281 51.492188 C 237.910156 40.746094 233.515625 32.0625 220.660156 32.128906 C 209.023438 32.207031 196.546875 41.375 190.953125 50.660156 C 190.457031 51.617188 189.296875 52.011719 188.335938 51.511719 C 187.367188 51.019531 186.984375 49.84375 187.476562 48.890625 L 187.488281 48.875 C 195.878906 29.1875 212.484375 13.785156 232.988281 7.035156 L 234.367188 7.023438 C 234.433594 5.863281 235.382812 4.929688 236.554688 4.929688 L 275.582031 4.691406 C 276.773438 4.683594 277.726562 5.589844 277.796875 6.75 L 279.019531 6.75 C 281.191406 7.433594 283.320312 8.210938 285.421875 9.105469 C 289.164062 10.914062 293.378906 11.921875 297.816406 11.894531 C 300.441406 11.882812 302.972656 11.515625 305.375 10.8125 C 305.410156 8.46875 307.308594 6.578125 309.65625 6.554688 L 325.734375 6.464844 C 328.117188 6.449219 330.066406 8.386719 330.082031 10.761719 L 330.210938 33.609375 C 330.226562 36.003906 328.304688 37.949219 325.925781 37.964844 L 309.859375 38.066406 C 307.464844 38.082031 305.523438 36.15625 305.515625 33.765625 L 305.5 33.519531 C 303.101562 32.855469 300.566406 32.507812 297.949219 32.519531 C 293.726562 32.550781 275.347656 33.066406 273.617188 51.285156 C 273.621094 52.976562 272.28125 54.332031 270.601562 54.347656 L 270.578125 54.347656 C 260.109375 48.238281 241.664062 54.523438 241.664062 54.523438 "/></g><path style=" stroke:none;fill-rule:nonzero;fill:rgb(61.959839%,61.178589%,61.569214%);fill-opacity:1;" d="M 242.089844 125.667969 L 242.042969 118.78125 L 241.664062 54.523438 C 241.664062 54.523438 260.109375 48.238281 270.578125 54.347656 L 270.976562 118.613281 L 271.007812 125.496094 L 271.054688 134.003906 C 252.25 130.765625 242.144531 134.191406 242.144531 134.191406 L 242.089844 125.667969 "/><path style=" stroke:none;fill-rule:nonzero;fill:rgb(54.508972%,12.159729%,18.03894%);fill-opacity:1;" d="M 227.464844 259.632812 L 227.445312 256.648438 C 229.09375 244.09375 237.867188 227.3125 232.351562 203.171875 C 230.53125 196.976562 229.472656 190.011719 229.429688 182.625 C 229.386719 175.46875 230.296875 168.683594 231.949219 162.605469 L 235.707031 142.695312 C 235.769531 141.398438 236.078125 140.195312 236.597656 139.09375 C 236.597656 139.09375 238.683594 136.046875 240.945312 134.71875 C 241.339844 134.527344 241.726562 134.332031 242.144531 134.191406 C 242.144531 134.191406 252.25 130.765625 271.054688 134.003906 C 271.054688 134.003906 275.550781 136.035156 277.605469 142.441406 C 277.605469 142.441406 280.277344 156.839844 281.59375 162.3125 C 283.320312 168.359375 284.320312 175.136719 284.367188 182.296875 C 284.414062 189.664062 283.445312 196.660156 281.691406 202.867188 C 276.464844 227.070312 285.4375 243.746094 287.257812 256.285156 L 287.273438 259.265625 C 287.3125 267.671875 280.953125 274.503906 273.046875 274.542969 L 241.875 274.742188 C 233.96875 274.804688 227.503906 268.015625 227.464844 259.632812 "/><path style=" stroke:none;fill-rule:nonzero;fill:rgb(82.749939%,82.348633%,82.348633%);fill-opacity:1;" d="M 239.414062 11.761719 C 239.414062 11.800781 239.402344 11.847656 239.402344 11.894531 L 239.398438 11.609375 C 239.394531 11.671875 239.410156 11.703125 239.414062 11.761719 C 239.464844 10.585938 240.421875 9.652344 241.597656 9.652344 L 270.25 9.484375 C 271.414062 9.476562 272.367188 10.390625 272.457031 11.558594 C 272.460938 11.515625 272.460938 11.449219 272.472656 11.402344 L 272.476562 11.691406 C 272.476562 11.644531 272.460938 11.601562 272.457031 11.558594 C 272.398438 12.722656 271.445312 13.644531 270.253906 13.644531 L 241.617188 13.824219 C 240.449219 13.824219 239.492188 12.910156 239.414062 11.761719 "/><path style=" stroke:none;fill-rule:nonzero;fill:rgb(82.749939%,82.348633%,82.348633%);fill-opacity:1;" d="M 210.382812 26.785156 C 210.378906 26.792969 210.378906 26.792969 210.378906 26.792969 C 209.835938 27.171875 209.101562 27.035156 208.730469 26.496094 C 208.351562 25.964844 208.488281 25.210938 209.023438 24.839844 C 215.792969 19.441406 223.746094 15.128906 232.898438 12.167969 C 233.035156 12.132812 233.164062 12.097656 233.292969 12.097656 C 233.882812 12.097656 234.363281 12.574219 234.355469 13.152344 L 234.382812 16.175781 C 234.398438 16.53125 234.191406 16.886719 233.675781 17.015625 C 225.035156 19.0625 217.207031 22.441406 210.382812 26.785156 "/><path style=" stroke:none;fill-rule:nonzero;fill:rgb(54.508972%,53.329468%,53.729248%);fill-opacity:1;" d="M 309.65625 6.554688 L 325.734375 6.464844 C 328.117188 6.449219 330.066406 8.386719 330.082031 10.761719 L 330.210938 33.609375 C 330.226562 36.003906 328.304688 37.949219 325.925781 37.964844 L 309.859375 38.066406 C 307.464844 38.082031 305.523438 36.15625 305.515625 33.765625 L 305.5 33.519531 L 305.375 10.8125 C 305.410156 8.46875 307.308594 6.578125 309.65625 6.554688 "/><path style=" stroke:none;fill-rule:nonzero;fill:rgb(74.119568%,73.728943%,73.728943%);fill-opacity:1;" d="M 223.1875 77.539062 L 184.632812 54.902344 L 167.410156 75.6875 L 196.703125 109.511719 L 218.511719 114.03125 L 321.953125 199.972656 L 335.894531 183.140625 L 230.617188 95.675781 L 223.1875 77.539062 "/><path style=" stroke:none;fill-rule:nonzero;fill:rgb(65.489197%,64.709473%,65.098572%);fill-opacity:1;" d="M 329.699219 190.628906 L 328.070312 192.609375 L 225.054688 107.011719 L 226.671875 105.042969 L 329.699219 190.628906 "/><path style=" stroke:none;fill-rule:nonzero;fill:rgb(97.648621%,65.489197%,16.859436%);fill-opacity:1;" d="M 277.296875 117.421875 L 247.324219 153.601562 C 246.378906 154.742188 246.300781 156.242188 247.179688 156.972656 L 255.03125 163.507812 C 255.910156 164.234375 257.378906 163.890625 258.320312 162.75 C 258.320312 162.75 260.53125 161.773438 261.691406 162.28125 C 262.859375 162.78125 272.933594 171.414062 272.933594 171.414062 L 299.492188 139.371094 C 299.492188 139.371094 289.03125 131.574219 288.066406 129.761719 C 287.097656 127.929688 288.289062 126.570312 288.289062 126.570312 C 289.238281 125.429688 289.304688 123.914062 288.441406 123.195312 L 280.574219 116.667969 C 279.707031 115.9375 278.238281 116.273438 277.296875 117.421875 "/><path style=" stroke:none;fill-rule:nonzero;fill:rgb(98.81897%,81.17981%,28.239441%);fill-opacity:1;" d="M 262.238281 154.296875 C 263.210938 155.105469 263.238281 156.683594 262.289062 157.824219 L 258.292969 162.660156 C 257.34375 163.789062 255.789062 164.058594 254.820312 163.25 L 247.464844 157.140625 C 246.492188 156.328125 246.46875 154.746094 247.417969 153.617188 L 251.421875 148.78125 C 252.363281 147.636719 253.914062 147.371094 254.890625 148.175781 L 262.238281 154.296875 "/><path style=" stroke:none;fill-rule:nonzero;fill:rgb(98.81897%,81.17981%,28.239441%);fill-opacity:1;" d="M 275.410156 138.394531 C 276.382812 139.21875 276.402344 140.792969 275.457031 141.9375 L 271.460938 146.765625 C 270.519531 147.902344 268.949219 148.171875 267.980469 147.363281 L 260.636719 141.242188 C 259.660156 140.441406 259.644531 138.863281 260.589844 137.710938 L 264.578125 132.886719 C 265.527344 131.746094 267.085938 131.476562 268.066406 132.277344 L 275.410156 138.394531 "/><path style=" stroke:none;fill-rule:nonzero;fill:rgb(98.81897%,81.17981%,28.239441%);fill-opacity:1;" d="M 288.582031 122.507812 C 289.546875 123.324219 289.578125 124.898438 288.621094 126.046875 L 284.625 130.875 C 283.671875 132.003906 282.125 132.277344 281.15625 131.460938 L 273.800781 125.347656 C 272.828125 124.539062 272.808594 122.96875 273.746094 121.8125 L 277.753906 117 C 278.699219 115.863281 280.253906 115.582031 281.230469 116.390625 L 288.582031 122.507812 "/><g clip-rule="nonzero" clip-path="url(#clip6)"><path style=" stroke:none;fill-rule:nonzero;fill:rgb(97.648621%,65.489197%,16.859436%);fill-opacity:1;" d="M 372.863281 192.675781 C 375.46875 194.839844 375.285156 199.371094 372.453125 202.804688 L 349.039062 231.046875 C 346.191406 234.484375 341.785156 235.496094 339.183594 233.332031 L 271.609375 177.292969 C 269.007812 175.125 269.183594 170.601562 272.023438 167.167969 L 295.4375 138.90625 C 298.285156 135.496094 302.6875 134.46875 305.292969 136.632812 L 372.863281 192.675781 "/></g><path style=" stroke:none;fill-rule:nonzero;fill:rgb(98.81897%,81.17981%,28.239441%);fill-opacity:1;" d="M 353.308594 218.894531 C 354.847656 220.175781 354.742188 222.820312 353.09375 224.832031 C 351.4375 226.816406 348.859375 227.402344 347.316406 226.132812 L 277.773438 168.445312 C 276.226562 167.167969 276.332031 164.511719 277.984375 162.519531 C 279.640625 160.527344 282.21875 159.933594 283.765625 161.21875 L 353.308594 218.894531 "/><path style=" stroke:none;fill-rule:nonzero;fill:rgb(98.81897%,81.17981%,28.239441%);fill-opacity:1;" d="M 366.5 202.960938 C 368.042969 204.234375 367.960938 206.886719 366.289062 208.882812 C 364.640625 210.878906 362.050781 211.46875 360.519531 210.179688 L 290.972656 152.507812 C 289.429688 151.226562 289.535156 148.582031 291.191406 146.59375 C 292.847656 144.585938 295.425781 144 296.96875 145.273438 L 366.5 202.960938 "/><path style=" stroke:none;fill-rule:nonzero;fill:rgb(98.81897%,81.17981%,28.239441%);fill-opacity:1;" d="M 289.414062 131.300781 L 263.015625 163.167969 L 262.191406 162.476562 L 288.585938 130.636719 L 289.414062 131.300781 "/><path style=" stroke:none;fill-rule:nonzero;fill:rgb(98.81897%,81.17981%,28.239441%);fill-opacity:1;" d="M 291.753906 133.273438 L 265.367188 165.113281 L 264.550781 164.4375 L 290.941406 132.601562 L 291.753906 133.273438 "/><path style=" stroke:none;fill-rule:nonzero;fill:rgb(98.81897%,81.17981%,28.239441%);fill-opacity:1;" d="M 294.117188 135.226562 L 267.726562 167.082031 L 266.914062 166.414062 L 293.296875 134.554688 L 294.117188 135.226562 "/><path style=" stroke:none;fill-rule:nonzero;fill:rgb(98.81897%,81.17981%,28.239441%);fill-opacity:1;" d="M 296.480469 137.203125 L 270.078125 169.042969 L 269.273438 168.359375 L 295.660156 136.515625 L 296.480469 137.203125 "/></g></svg>